<?xml version="1.0" encoding="UTF-8" standalone="no"?>
<!-- Created with Inkscape (http://www.inkscape.org/) -->

<svg
   width="256"
   height="256"
   viewBox="0 0 256 256"
   version="1.1"
   id="svg5"
   inkscape:version="1.2.2 (b0a8486541, 2022-12-01)"
   sodipodi:docname="icon.svg"
   xmlns:inkscape="http://www.inkscape.org/namespaces/inkscape"
   xmlns:sodipodi="http://sodipodi.sourceforge.net/DTD/sodipodi-0.dtd"
   xmlns:xlink="http://www.w3.org/1999/xlink"
   xmlns="http://www.w3.org/2000/svg"
   xmlns:svg="http://www.w3.org/2000/svg">
  <sodipodi:namedview
     id="namedview7"
     pagecolor="#505050"
     bordercolor="#ffffff"
     borderopacity="1"
     inkscape:pageshadow="0"
     inkscape:pageopacity="0"
     inkscape:pagecheckerboard="1"
     inkscape:document-units="px"
     showgrid="true"
     inkscape:snap-page="true"
     inkscape:zoom="2.634433"
     inkscape:cx="121.27847"
     inkscape:cy="138.73953"
     inkscape:window-width="1920"
     inkscape:window-height="1131"
     inkscape:window-x="0"
     inkscape:window-y="0"
     inkscape:window-maximized="1"
     inkscape:current-layer="layer1"
     inkscape:showpageshadow="2"
     inkscape:deskcolor="#505050">
    <inkscape:grid
       type="xygrid"
       id="grid763"
       spacingx="4"
       spacingy="4"
       empspacing="4" />
  </sodipodi:namedview>
  <defs
     id="defs2">
    <linearGradient
       inkscape:collect="always"
       id="linearGradient12477">
      <stop
         style="stop-color:#535353;stop-opacity:1;"
         offset="0"
         id="stop12473" />
      <stop
         style="stop-color:#929797;stop-opacity:1;"
         offset="0.99787235"
         id="stop12475" />
    </linearGradient>
    <linearGradient
       inkscape:collect="always"
       id="linearGradient7175">
      <stop
         style="stop-color:#7b8080;stop-opacity:1;"
         offset="0.00219298"
         id="stop7171" />
      <stop
         style="stop-color:#bfbfbf;stop-opacity:1;"
         offset="0.07065516"
         id="stop7173" />
      <stop
         style="stop-color:#9ea3a3;stop-opacity:1;"
         offset="0.21754216"
         id="stop7189" />
      <stop
         style="stop-color:#898f8f;stop-opacity:1;"
         offset="0.76550508"
         id="stop7187" />
      <stop
         style="stop-color:#c4c4c4;stop-opacity:1;"
         offset="0.90358585"
         id="stop7185" />
      <stop
         style="stop-color:#515656;stop-opacity:1;"
         offset="0.99780703"
         id="stop7183" />
    </linearGradient>
    <filter
       style="color-interpolation-filters:sRGB"
       inkscape:label="Fade to Black or White"
       id="filter11117"
       x="0"
       y="0"
       width="1"
       height="1">
      <feColorMatrix
         values="0.800732 0 0 0 0 0 0.800732 0 0 0 0 0 0.800732 0 0 0 0 0 1 0"
         id="feColorMatrix11115" />
    </filter>
    <filter
       style="color-interpolation-filters:sRGB"
       inkscape:label="Fade to Black or White"
       id="filter11139"
       x="0"
       y="0"
       width="1"
       height="1">
      <feColorMatrix
         values="0.800732 0 0 0 0 0 0.800732 0 0 0 0 0 0.800732 0 0 0 0 0 1 0"
         id="feColorMatrix11137" />
    </filter>
    <linearGradient
       inkscape:collect="always"
       xlink:href="#linearGradient7175"
       id="linearGradient7181"
       x1="16"
       y1="128"
       x2="240"
       y2="128"
       gradientUnits="userSpaceOnUse" />
    <linearGradient
       inkscape:collect="always"
       xlink:href="#linearGradient12477"
       id="linearGradient12479"
       x1="349.66684"
       y1="252.39424"
       x2="248.28244"
       y2="151.00984"
       gradientUnits="userSpaceOnUse" />
  </defs>
  <g
     inkscape:label="Layer 1"
     inkscape:groupmode="layer"
     id="layer1">
    <path
       id="rect868"
       style="fill:url(#linearGradient7181);fill-opacity:1;stroke:none;stroke-width:10.9379;stroke-miterlimit:6;stroke-dasharray:none;stroke-dashoffset:0;stroke-opacity:1"
       d="M 40.840399,16 C 27.078731,16 16,27.327665 16,41.398553 V 214.60145 C 16,228.67233 27.078731,240 40.840399,240 H 215.1596 C 228.92127,240 240,228.67233 240,214.60145 V 41.398553 C 240,27.327665 228.92127,16 215.1596,16 Z"
       sodipodi:nodetypes="sssssssss" />
    <path
       id="path7146"
       style="fill:#bfc0c0;fill-opacity:1;stroke:none;stroke-width:10.6409;stroke-miterlimit:6;stroke-dasharray:none;stroke-dashoffset:0;stroke-opacity:1"
       d="M 40.840399,16 C 27.078731,16 16,26.720826 16,40.037916 V 203.96209 C 16,217.27917 27.078731,228 40.840399,228 H 215.1596 C 228.92127,228 240,217.27917 240,203.96209 V 40.037916 C 240,26.720826 228.92127,16 215.1596,16 Z"
       sodipodi:nodetypes="sssssssss" />
    <path
       id="path7446"
       style="fill:#8b8e8e;fill-opacity:1;stroke:none;stroke-width:9.76682;stroke-miterlimit:6;stroke-dasharray:none;stroke-dashoffset:0;stroke-opacity:1"
       d="m 47.999999,24.707218 c -12.631235,0 -22.79992,9.840179 -22.79992,22.063356 V 197.22943 c 0,12.22317 10.168685,22.06335 22.79992,22.06335 H 208 c 12.63124,0 22.79992,-9.84018 22.79992,-22.06335 V 46.770574 C 230.79992,34.547397 220.63124,24.707218 208,24.707218 Z"
       sodipodi:nodetypes="sssssssss" />
    <path
       d="m 196.5639,40.157104 c -9.37787,0.17317 -19.00473,2.604885 -25.34946,8.949692 -7.18386,7.196286 -12.69786,15.421464 -15.25674,22.755905 -10.22133,-7.611955 -15.76323,-13.829174 -22.83106,-6.74082 -7.06781,7.088356 -0.99504,12.155428 6.2129,22.089742 -15.68748,7.506895 -36.71261,23.680217 -56.534127,43.488247 -34.120333,34.12025 -54.739437,68.82252 -46.053762,77.50993 8.686141,8.68749 43.389578,-11.93133 77.510929,-46.05275 19.79563,-19.7978 35.9742,-40.80941 43.51129,-56.50809 9.93816,7.2133 14.75791,13.56173 22.09976,6.2199 7.34185,-7.34184 0.74143,-13.037232 -7.24671,-23.514235 39.65981,0.4318 18.58573,-27.22061 51.37308,-41.175208 -3.73279,-3.733036 -15.37884,-7.24496 -27.4361,-7.022313 z"
       style="fill:#e6e6e6;fill-opacity:1;stroke:none;stroke-width:11.7198;stroke-miterlimit:6;stroke-dasharray:none;stroke-dashoffset:0;stroke-opacity:1"
       id="path1055" />
    <path
       id="rect868-7"
       style="fill:url(#linearGradient12479);fill-opacity:1;stroke:none;stroke-width:22.85;stroke-miterlimit:6;stroke-dasharray:none;stroke-dashoffset:0;stroke-opacity:1;filter:url(#filter11117)"
       d="m 326.60352,157.21289 c -5.09931,0.0634 -10.50521,0.46614 -16.21875,1.23242 -0.51529,-0.38374 -0.88538,-0.68084 -1.38868,-1.06054 l 34.9375,33.20312 c 22.31637,1.70075 31.64028,-2.62252 38.38868,-8.46875 -9.60309,-15.69046 -28.18253,-25.24832 -55.71875,-24.90625 z m -51.89454,26.80859 c 1.13429,1.49964 2.09611,2.72427 3.2754,4.34961 -8.70921,4.1676 -18.32346,9.83647 -28.42579,16.51758 l 18.58008,87.57031 c 33.46573,-37.39655 39.74146,-49.83579 45.72656,-68.02539 z"
       transform="matrix(0.51289942,0,0,0.51289942,-3.3439228,-9.4528568)"
       sodipodi:nodetypes="sccccscccccc" />
    <path
       d="m 158.15315,142.60931 h 72.22 v 72.22 h -72.22 z"
       fill="none"
       id="path873"
       style="stroke-width:1.50458" />
    <path
       d="m 216.42849,183.86617 c 0.13155,-1.02698 0.23023,-2.06999 0.23023,-3.12904 0,-1.05905 -0.0987,-2.10206 -0.23023,-3.12904 l 6.95608,-5.31134 c 0.62489,-0.48138 0.80578,-1.34788 0.39468,-2.05392 l -6.57787,-11.12012 c -0.4111,-0.68999 -1.26623,-0.97882 -2.00623,-0.68999 l -8.18943,3.22532 c -1.6938,-1.26767 -3.55204,-2.34278 -5.55829,-3.16113 l -1.23334,-8.50456 c -0.148,-0.75418 -0.82224,-1.3479 -1.64447,-1.3479 h -13.15569 c -0.82224,0 -1.49646,0.59372 -1.62802,1.3479 l -1.23335,8.50456 c -2.00624,0.81835 -3.86448,1.87742 -5.55828,3.16113 l -8.18942,-3.22532 c -0.74001,-0.27279 -1.59513,0 -2.00625,0.68999 l -6.57785,11.12012 c -0.41112,0.68999 -0.23022,1.55649 0.39467,2.05392 l 6.93963,5.31134 c -0.13155,1.02698 -0.23022,2.06999 -0.23022,3.12904 0,1.05905 0.0987,2.10206 0.23022,3.12904 l -6.93963,5.31134 c -0.62489,0.48138 -0.80579,1.34788 -0.39467,2.05392 l 6.57785,11.12012 c 0.41112,0.68999 1.26624,0.97882 2.00625,0.68999 l 8.18942,-3.22532 c 1.6938,1.26767 3.55204,2.34278 5.55828,3.16112 l 1.23335,8.50457 c 0.13156,0.75418 0.80578,1.3479 1.62802,1.3479 h 13.15569 c 0.82223,0 1.49647,-0.59372 1.62803,-1.3479 l 1.23334,-8.50457 c 2.00625,-0.81834 3.86449,-1.87741 5.55829,-3.16112 l 8.18941,3.22532 c 0.74002,0.27279 1.59514,0 2.00625,-0.68999 l 6.57785,-11.12012 c 0.41112,-0.68999 0.23022,-1.55649 -0.39467,-2.05392 z m -24.43671,8.10339 c -6.36407,0 -11.51123,-5.02249 -11.51123,-11.23243 0,-6.20994 5.14716,-11.23243 11.51123,-11.23243 6.36407,0 11.51124,5.02249 11.51124,11.23243 0,6.20994 -5.14717,11.23243 -11.51124,11.23243 z"
       id="path1587"
       style="fill:#4f5454;fill-opacity:1;stroke-width:1.62442" />
    <path
       d="m 215.70316,180.27644 c 0.12986,-1.03894 0.22727,-2.0941 0.22727,-3.16549 0,-1.07139 -0.0974,-2.12655 -0.22727,-3.16549 l 6.86667,-5.3732 c 0.61686,-0.48699 0.79542,-1.36359 0.3896,-2.07785 l -6.49331,-11.24965 c -0.40582,-0.69802 -1.24996,-0.99022 -1.98045,-0.69802 l -8.08416,3.26288 c -1.67203,-1.28243 -3.50638,-2.37006 -5.48684,-3.19795 l -1.21749,-8.60362 c -0.1461,-0.76296 -0.81167,-1.3636 -1.62333,-1.3636 h -12.98659 c -0.81167,0 -1.47722,0.60064 -1.60709,1.3636 l -1.2175,8.60362 c -1.98045,0.82789 -3.81481,1.89929 -5.48683,3.19795 l -8.08416,-3.26288 c -0.7305,-0.27597 -1.57462,0 -1.98046,0.69802 l -6.4933,11.24965 c -0.40583,0.69803 -0.22726,1.57462 0.3896,2.07785 l 6.85043,5.3732 c -0.12986,1.03894 -0.22726,2.0941 -0.22726,3.16549 0,1.07139 0.0974,2.12655 0.22726,3.16549 l -6.85043,5.3732 c -0.61686,0.48699 -0.79543,1.36359 -0.3896,2.07785 l 6.4933,11.24965 c 0.40584,0.69802 1.24996,0.99022 1.98046,0.69802 l 8.08416,-3.26288 c 1.67202,1.28243 3.50638,2.37006 5.48683,3.19794 l 1.2175,8.60363 c 0.12987,0.76296 0.79542,1.3636 1.60709,1.3636 h 12.98659 c 0.81166,0 1.47723,-0.60064 1.6071,-1.3636 l 1.21749,-8.60363 c 1.98046,-0.82788 3.81481,-1.89928 5.48684,-3.19794 l 8.08415,3.26288 c 0.7305,0.27597 1.57463,0 1.98046,-0.69802 l 6.4933,-11.24965 c 0.40583,-0.69803 0.22726,-1.57462 -0.3896,-2.07785 z m -24.1226,8.19778 c -6.28227,0 -11.36327,-5.081 -11.36327,-11.36327 0,-6.28227 5.081,-11.36327 11.36327,-11.36327 6.28227,0 11.36327,5.081 11.36327,11.36327 0,6.28227 -5.081,11.36327 -11.36327,11.36327 z"
       id="path875"
       style="fill:#efefef;fill-opacity:1;stroke-width:1.62332" />
    <path
       id="path7473"
       style="fill:#474c4c;fill-opacity:1;stroke:none;stroke-width:9.76682;stroke-miterlimit:6;stroke-dasharray:none;stroke-dashoffset:0;stroke-opacity:1"
       d="m 48,24.707031 c -12.631222,0 -22.800781,9.841289 -22.800781,22.064453 V 197.22852 c 0,9.4935 6.146981,17.52768 14.804687,20.65234 -3.538429,-3.88496 -7.842444,-8.97645 -7.842444,-14.58594 V 52.835938 c 0,-12.223165 12.314738,-22.064454 24.94596,-22.064454 H 217.10742 c 2.82013,0 5.50528,0.514079 7.99414,1.41211 C 220.92971,27.603367 214.8343,24.707031 208,24.707031 Z"
       sodipodi:nodetypes="ssscsssscss" />
  </g>
</svg>
