# Blender v3.0.0 OBJ File: ''
# www.blender.org
mtllib plane.mtl
o Plane
v 0.055961 0.000000 0.055961
v 0.944039 0.000000 0.055961
v -0.055961 0.000000 0.055961
v -0.055961 0.000000 0.944039
v -0.944039 0.000000 0.055961
v -0.055961 0.000000 -0.055961
v -0.055961 0.000000 -0.944039
v -0.944039 0.000000 -0.055961
v -0.944039 0.000000 -0.944039
v 0.055961 0.000000 0.944039
v -0.944039 0.000000 0.944039
v 0.944039 0.000000 -0.944039
v 0.944039 0.000000 0.944039
v 0.944039 0.000000 -0.055961
v 0.055961 0.000000 -0.944039
v 0.055961 0.000000 -0.055961
vt 0.466098 0.033902
vt 0.466098 0.466098
vt 0.033902 0.466098
vt 0.033902 0.033902
vt 0.966098 0.533902
vt 0.966098 0.966098
vt 0.533902 0.966098
vt 0.533902 0.533902
vt 0.966098 0.466098
vt 0.533902 0.466098
vt 0.533902 0.033902
vt 0.966098 0.033902
vt 0.466098 0.533902
vt 0.466098 0.966098
vt 0.033902 0.966098
vt 0.033902 0.533902
vn 0.0000 1.0000 0.0000
usemtl None
s off
f 8/1/1 6/2/1 7/3/1 9/4/1
f 16/5/1 14/6/1 12/7/1 15/8/1
f 11/9/1 4/10/1 3/11/1 5/12/1
f 10/13/1 13/14/1 2/15/1 1/16/1
